<svg width="1000" height="100" viewBox="0 0 1000 100" fill="none" xmlns="http://www.w3.org/2000/svg">
<circle cx="50" cy="50" r="50" fill="#3E3C3A"/>
<circle cx="350" cy="50" r="50" fill="#3E3C3A"/>
<circle cx="650" cy="50" r="50" fill="#3E3C3A"/>
<circle cx="950" cy="50" r="50" fill="#3E3C3A"/>
<line x1="100" y1="48.5" x2="300" y2="48.5" stroke="#3E3C3A" stroke-width="3"/>
<line x1="400" y1="48.5" x2="600" y2="48.5" stroke="#3E3C3A" stroke-width="3"/>
<line x1="700" y1="48.5" x2="900" y2="48.5" stroke="#3E3C3A" stroke-width="3"/>
<path d="M53.124 37.8V63H47.292V42.48H42.252V37.8H53.124Z" fill="white"/>
<path d="M359.232 58.248V63H340.188V59.22L349.908 50.04C350.94 49.056 351.636 48.216 351.996 47.52C352.356 46.8 352.536 46.092 352.536 45.396C352.536 44.388 352.188 43.62 351.492 43.092C350.82 42.54 349.824 42.264 348.504 42.264C347.4 42.264 346.404 42.48 345.516 42.912C344.628 43.32 343.884 43.944 343.284 44.784L339.036 42.048C340.02 40.584 341.376 39.444 343.104 38.628C344.832 37.788 346.812 37.368 349.044 37.368C350.916 37.368 352.548 37.68 353.94 38.304C355.356 38.904 356.448 39.768 357.216 40.896C358.008 42 358.404 43.308 358.404 44.82C358.404 46.188 358.116 47.472 357.54 48.672C356.964 49.872 355.848 51.24 354.192 52.776L348.396 58.248H359.232Z" fill="white"/>
<path d="M652.176 48.06C654.384 48.42 656.076 49.248 657.252 50.544C658.428 51.816 659.016 53.4 659.016 55.296C659.016 56.76 658.632 58.116 657.864 59.364C657.096 60.588 655.92 61.572 654.336 62.316C652.776 63.06 650.856 63.432 648.576 63.432C646.8 63.432 645.048 63.204 643.32 62.748C641.616 62.268 640.164 61.596 638.964 60.732L641.232 56.268C642.192 56.988 643.296 57.552 644.544 57.96C645.816 58.344 647.112 58.536 648.432 58.536C649.896 58.536 651.048 58.26 651.888 57.708C652.728 57.132 653.148 56.328 653.148 55.296C653.148 53.232 651.576 52.2 648.432 52.2H645.768V48.348L650.952 42.48H640.224V37.8H657.864V41.58L652.176 48.06Z" fill="white"/>
<path d="M961.48 57.708H957.376V63H951.688V57.708H938.116V53.784L949.996 37.8H956.116L945.1 52.956H951.868V48.24H957.376V52.956H961.48V57.708Z" fill="white"/>
</svg>
