<svg width="100" height="1150" viewBox="0 0 100 1150" fill="none" xmlns="http://www.w3.org/2000/svg">
<circle cx="50" cy="50" r="50" fill="#3E3C3A"/>
<circle cx="50" cy="400" r="50" fill="#3E3C3A"/>
<circle cx="50" cy="750" r="50" fill="#3E3C3A"/>
<circle cx="50" cy="1100" r="50" fill="#3E3C3A"/>
<line x1="51.5" y1="100" x2="51.5" y2="350" stroke="#3E3C3A" stroke-width="3"/>
<line x1="51.5" y1="450" x2="51.5" y2="700" stroke="#3E3C3A" stroke-width="3"/>
<line x1="51.5" y1="800" x2="51.5" y2="1050" stroke="#3E3C3A" stroke-width="3"/>
<path d="M54.124 37.8V63H48.292V42.48H43.252V37.8H54.124Z" fill="white"/>
<path d="M59.232 408.248V413H40.188V409.22L49.908 400.04C50.94 399.056 51.636 398.216 51.996 397.52C52.356 396.8 52.536 396.092 52.536 395.396C52.536 394.388 52.188 393.62 51.492 393.092C50.82 392.54 49.824 392.264 48.504 392.264C47.4 392.264 46.404 392.48 45.516 392.912C44.628 393.32 43.884 393.944 43.284 394.784L39.036 392.048C40.02 390.584 41.376 389.444 43.104 388.628C44.832 387.788 46.812 387.368 49.044 387.368C50.916 387.368 52.548 387.68 53.94 388.304C55.356 388.904 56.448 389.768 57.216 390.896C58.008 392 58.404 393.308 58.404 394.82C58.404 396.188 58.116 397.472 57.54 398.672C56.964 399.872 55.848 401.24 54.192 402.776L48.396 408.248H59.232Z" fill="white"/>
<path d="M52.176 748.06C54.384 748.42 56.076 749.248 57.252 750.544C58.428 751.816 59.016 753.4 59.016 755.296C59.016 756.76 58.632 758.116 57.864 759.364C57.096 760.588 55.92 761.572 54.336 762.316C52.776 763.06 50.856 763.432 48.576 763.432C46.8 763.432 45.048 763.204 43.32 762.748C41.616 762.268 40.164 761.596 38.964 760.732L41.232 756.268C42.192 756.988 43.296 757.552 44.544 757.96C45.816 758.344 47.112 758.536 48.432 758.536C49.896 758.536 51.048 758.26 51.888 757.708C52.728 757.132 53.148 756.328 53.148 755.296C53.148 753.232 51.576 752.2 48.432 752.2H45.768V748.348L50.952 742.48H40.224V737.8H57.864V741.58L52.176 748.06Z" fill="white"/>
<path d="M60.48 1107.71H56.376V1113H50.688V1107.71H37.116V1103.78L48.996 1087.8H55.116L44.1 1102.96H50.868V1098.24H56.376V1102.96H60.48V1107.71Z" fill="white"/>
</svg>
