<svg width="100" height="700" viewBox="0 0 100 700" fill="none" xmlns="http://www.w3.org/2000/svg">
<circle cx="50" cy="50" r="50" fill="#3E3C3A"/>
<circle cx="50" cy="250" r="50" fill="#3E3C3A"/>
<circle cx="50" cy="450" r="50" fill="#3E3C3A"/>
<circle cx="50" cy="650" r="50" fill="#3E3C3A"/>
<line x1="51.5" y1="100" x2="51.5" y2="200" stroke="#3E3C3A" stroke-width="3"/>
<line x1="51.5" y1="300" x2="51.5" y2="400" stroke="#3E3C3A" stroke-width="3"/>
<line x1="51.5" y1="500" x2="51.5" y2="600" stroke="#3E3C3A" stroke-width="3"/>
<path d="M54.124 37.8V63H48.292V42.48H43.252V37.8H54.124Z" fill="white"/>
<path d="M59.232 258.248V263H40.188V259.22L49.908 250.04C50.94 249.056 51.636 248.216 51.996 247.52C52.356 246.8 52.536 246.092 52.536 245.396C52.536 244.388 52.188 243.62 51.492 243.092C50.82 242.54 49.824 242.264 48.504 242.264C47.4 242.264 46.404 242.48 45.516 242.912C44.628 243.32 43.884 243.944 43.284 244.784L39.036 242.048C40.02 240.584 41.376 239.444 43.104 238.628C44.832 237.788 46.812 237.368 49.044 237.368C50.916 237.368 52.548 237.68 53.94 238.304C55.356 238.904 56.448 239.768 57.216 240.896C58.008 242 58.404 243.308 58.404 244.82C58.404 246.188 58.116 247.472 57.54 248.672C56.964 249.872 55.848 251.24 54.192 252.776L48.396 258.248H59.232Z" fill="white"/>
<path d="M52.176 448.06C54.384 448.42 56.076 449.248 57.252 450.544C58.428 451.816 59.016 453.4 59.016 455.296C59.016 456.76 58.632 458.116 57.864 459.364C57.096 460.588 55.92 461.572 54.336 462.316C52.776 463.06 50.856 463.432 48.576 463.432C46.8 463.432 45.048 463.204 43.32 462.748C41.616 462.268 40.164 461.596 38.964 460.732L41.232 456.268C42.192 456.988 43.296 457.552 44.544 457.96C45.816 458.344 47.112 458.536 48.432 458.536C49.896 458.536 51.048 458.26 51.888 457.708C52.728 457.132 53.148 456.328 53.148 455.296C53.148 453.232 51.576 452.2 48.432 452.2H45.768V448.348L50.952 442.48H40.224V437.8H57.864V441.58L52.176 448.06Z" fill="white"/>
<path d="M60.48 657.708H56.376V663H50.688V657.708H37.116V653.784L48.996 637.8H55.116L44.1 652.956H50.868V648.24H56.376V652.956H60.48V657.708Z" fill="white"/>
</svg>
