<svg width="30" height="30" viewBox="0 0 30 30" fill="none" xmlns="http://www.w3.org/2000/svg">
<path d="M23.1975 29.9999C22.9055 29.9991 22.6144 29.9664 22.3292 29.9023C16.8997 28.7537 11.8976 26.0606 7.89878 22.133C3.98526 18.1968 1.27102 13.1851 0.0844682 7.70435C-0.0554415 7.02128 -0.0211021 6.31289 0.184183 5.64733C0.389468 4.98176 0.758789 4.38142 1.25662 3.90407L4.72964 0.485587C4.90703 0.314031 5.11781 0.182656 5.3482 0.100038C5.5786 0.0174197 5.82345 -0.0145852 6.06676 0.00611211C6.31904 0.0330275 6.5625 0.116137 6.78 0.249595C6.99751 0.383054 7.18379 0.563621 7.32573 0.7786L11.667 7.3403C11.8298 7.59491 11.9084 7.89623 11.8912 8.19993C11.874 8.50362 11.762 8.79366 11.5715 9.02734L9.39218 11.6911C10.2601 13.6556 11.4893 15.4311 13.0128 16.9209C14.5264 18.4648 16.3155 19.6976 18.2831 20.5525L20.9834 18.3593C21.2102 18.1761 21.4862 18.0677 21.7747 18.0487C22.0631 18.0296 22.3504 18.1008 22.5984 18.2528L29.1537 22.5858C29.3787 22.7232 29.5703 22.9108 29.7143 23.1347C29.8583 23.3585 29.9509 23.6128 29.9851 23.8785C30.0194 24.1441 29.9944 24.4142 29.912 24.6686C29.8297 24.9229 29.6922 25.155 29.5097 25.3473L26.1235 28.7746C25.7388 29.166 25.2823 29.4758 24.7801 29.6861C24.278 29.8964 23.7401 30.003 23.1975 29.9999ZM5.92784 1.76419L2.45481 5.18267C2.17476 5.44953 1.96745 5.78634 1.85327 6.15998C1.73909 6.53362 1.72198 6.93121 1.80362 7.31367C2.90693 12.4566 5.44311 17.1627 9.10566 20.8633C12.8689 24.5584 17.576 27.0915 22.6852 28.1708C23.0719 28.2535 23.4727 28.2368 23.8515 28.1221C24.2303 28.0074 24.5754 27.7984 24.8558 27.5138L28.242 24.0864L21.9124 19.9043L19.0125 22.2662C18.9015 22.356 18.7706 22.4168 18.6314 22.4431C18.4922 22.4694 18.3488 22.4605 18.2137 22.4171C15.8057 21.5098 13.6236 20.0696 11.8233 18.1995C9.9612 16.4212 8.51578 14.2359 7.59489 11.8065C7.55593 11.6595 7.55464 11.5046 7.59113 11.3569C7.62763 11.2091 7.70068 11.0735 7.80327 10.963L10.1476 8.09503L5.92784 1.76419Z" fill="#3E3C3A"/>
</svg>
