<svg width="25" height="24" viewBox="0 0 25 24" fill="none" xmlns="http://www.w3.org/2000/svg">
<path d="M18.4084 7.03947C19.2037 7.03947 19.8484 6.39469 19.8484 5.59932C19.8484 4.80395 19.2037 4.15918 18.4084 4.15918C17.6131 4.15918 16.9684 4.80395 16.9684 5.59932C16.9684 6.39469 17.6131 7.03947 18.4084 7.03947Z" fill="#3E3C3A"/>
<path d="M12.0024 5.84277C10.7837 5.84277 9.59232 6.20408 8.57898 6.88102C7.56564 7.55795 6.77584 8.5201 6.30945 9.6458C5.84306 10.7715 5.72103 12.0102 5.9588 13.2052C6.19656 14.4003 6.78344 15.498 7.64521 16.3595C8.50698 17.2211 9.60495 17.8078 10.8003 18.0456C11.9956 18.2833 13.2346 18.1613 14.3605 17.695C15.4865 17.2287 16.4489 16.4391 17.1259 15.426C17.803 14.4129 18.1644 13.2218 18.1644 12.0034C18.1644 10.3695 17.5152 8.8025 16.3596 7.64717C15.204 6.49183 13.6367 5.84277 12.0024 5.84277ZM12.0024 16.0024C11.2113 16.0024 10.4379 15.7679 9.78013 15.3285C9.12233 14.889 8.60964 14.2645 8.30688 13.5337C8.00413 12.803 7.92492 11.9989 8.07926 11.2232C8.2336 10.4474 8.61457 9.73486 9.17398 9.17558C9.73339 8.6163 10.4461 8.23542 11.222 8.08112C11.998 7.92681 12.8022 8.00601 13.5331 8.30869C14.2641 8.61137 14.8888 9.12394 15.3283 9.78158C15.7678 10.4392 16.0024 11.2124 16.0024 12.0034C16.0024 13.064 15.581 14.0812 14.8308 14.8311C14.0807 15.5811 13.0633 16.0024 12.0024 16.0024Z" fill="#3E3C3A"/>
<path d="M12.0029 2.16778C15.207 2.16778 15.5871 2.17978 16.8521 2.23776C17.613 2.24679 18.3666 2.38646 19.0802 2.65065C19.5979 2.85029 20.068 3.15607 20.4604 3.5483C20.8527 3.94053 21.1586 4.41053 21.3583 4.92806C21.6226 5.6414 21.7623 6.39483 21.7713 7.15547C21.8293 8.42014 21.8413 8.80004 21.8413 12.0042C21.8413 15.2084 21.8293 15.5863 21.7713 16.8509C21.7623 17.6116 21.6226 18.365 21.3583 19.0783C21.1586 19.5959 20.8527 20.0659 20.4604 20.4581C20.068 20.8503 19.5979 21.1561 19.0802 21.3558C18.3666 21.62 17.613 21.7596 16.8521 21.7686C15.5871 21.8266 15.207 21.8386 12.0029 21.8386C8.79876 21.8386 8.41875 21.8266 7.15369 21.7686C6.39282 21.7596 5.63915 21.62 4.92559 21.3558C4.40791 21.1561 3.93776 20.8503 3.54541 20.4581C3.15306 20.0659 2.8472 19.5959 2.64749 19.0783C2.38322 18.365 2.24351 17.6116 2.23448 16.8509C2.17647 15.5863 2.16447 15.2064 2.16447 12.0032C2.16447 8.80004 2.17647 8.42014 2.23448 7.15547C2.24351 6.39483 2.38322 5.6414 2.64749 4.92806C2.8472 4.41053 3.15306 3.94053 3.54541 3.5483C3.93776 3.15607 4.40791 2.85029 4.92559 2.65065C5.63915 2.38646 6.39282 2.24679 7.15369 2.23776C8.41875 2.17978 8.79876 2.16778 12.0029 2.16778ZM12.0029 0.00634766C8.74376 0.00634766 8.33474 0.020344 7.05469 0.0783288C6.05942 0.0984196 5.07476 0.287043 4.14256 0.636183C3.34525 0.944399 2.62115 1.41576 2.01669 2.02004C1.41222 2.62432 0.940718 3.3482 0.632408 4.14526C0.283051 5.07749 0.0943677 6.0622 0.0743835 7.0575C0.016381 8.33716 0.00238037 8.74406 0.00238037 12.0032C0.00238037 15.2623 0.016381 15.6702 0.0743835 16.9499C0.0944805 17.9449 0.283162 18.9292 0.632408 19.8611C0.940718 20.6582 1.41222 21.3821 2.01669 21.9864C2.62115 22.5907 3.34525 23.062 4.14256 23.3702C5.07507 23.7195 6.06008 23.9081 7.05569 23.9281C8.33574 23.9861 8.74376 24.0001 12.0029 24.0001C15.262 24.0001 15.6711 23.9861 16.9511 23.9281C17.9467 23.9081 18.9317 23.7195 19.8642 23.3702C20.6616 23.062 21.3856 22.5907 21.9901 21.9864C22.5946 21.3821 23.0661 20.6582 23.3744 19.8611C23.7234 18.9289 23.9118 17.9442 23.9314 16.9489C23.9894 15.6692 24.0034 15.2623 24.0034 12.0032C24.0034 8.74406 23.9894 8.33616 23.9314 7.0565C23.9113 6.06153 23.7226 5.07718 23.3734 4.14526C23.0651 3.3482 22.5936 2.62432 21.9891 2.02004C21.3846 1.41576 20.6606 0.944399 19.8632 0.636183C18.9307 0.287274 17.9457 0.0989865 16.9501 0.0793285C15.6701 0.0193442 15.263 0.00634766 12.0029 0.00634766Z" fill="#3E3C3A"/>
</svg>
