<svg width="83" height="19" viewBox="0 0 83 19" fill="none" xmlns="http://www.w3.org/2000/svg">
<path d="M11.2695 13.2422C11.2695 14.7891 10.7109 16.0078 9.59375 16.8984C8.48438 17.7891 6.9375 18.2344 4.95312 18.2344C3.125 18.2344 1.50781 17.8906 0.101562 17.2031V13.8281C1.25781 14.3438 2.23438 14.707 3.03125 14.918C3.83594 15.1289 4.57031 15.2344 5.23438 15.2344C6.03125 15.2344 6.64062 15.082 7.0625 14.7773C7.49219 14.4727 7.70703 14.0195 7.70703 13.418C7.70703 13.082 7.61328 12.7852 7.42578 12.5273C7.23828 12.2617 6.96094 12.0078 6.59375 11.7656C6.23438 11.5234 5.49609 11.1367 4.37891 10.6055C3.33203 10.1133 2.54688 9.64062 2.02344 9.1875C1.5 8.73438 1.08203 8.20703 0.769531 7.60547C0.457031 7.00391 0.300781 6.30078 0.300781 5.49609C0.300781 3.98047 0.8125 2.78906 1.83594 1.92188C2.86719 1.05469 4.28906 0.621094 6.10156 0.621094C6.99219 0.621094 7.83984 0.726562 8.64453 0.9375C9.45703 1.14844 10.3047 1.44531 11.1875 1.82812L10.0156 4.65234C9.10156 4.27734 8.34375 4.01562 7.74219 3.86719C7.14844 3.71875 6.5625 3.64453 5.98438 3.64453C5.29688 3.64453 4.76953 3.80469 4.40234 4.125C4.03516 4.44531 3.85156 4.86328 3.85156 5.37891C3.85156 5.69922 3.92578 5.98047 4.07422 6.22266C4.22266 6.45703 4.45703 6.6875 4.77734 6.91406C5.10547 7.13281 5.875 7.53125 7.08594 8.10938C8.6875 8.875 9.78516 9.64453 10.3789 10.418C10.9727 11.1836 11.2695 12.125 11.2695 13.2422ZM29.2803 0.867188V11.9531C29.2803 13.2188 28.9952 14.3281 28.4248 15.2812C27.8623 16.2344 27.0459 16.9648 25.9756 17.4727C24.9053 17.9805 23.6397 18.2344 22.1788 18.2344C19.9756 18.2344 18.2647 17.6719 17.0459 16.5469C15.8272 15.4141 15.2178 13.8672 15.2178 11.9062V0.867188H18.8389V11.3555C18.8389 12.6758 19.1045 13.6445 19.6358 14.2617C20.167 14.8789 21.0459 15.1875 22.2725 15.1875C23.46 15.1875 24.3194 14.8789 24.8506 14.2617C25.3897 13.6367 25.6592 12.6602 25.6592 11.332V0.867188H29.2803Z" fill="white"/>
<path d="M38.0684 8.92969H39.2637C40.3809 8.92969 41.2169 8.71094 41.7716 8.27344C42.3262 7.82812 42.6036 7.18359 42.6036 6.33984C42.6036 5.48828 42.3692 4.85938 41.9005 4.45312C41.4395 4.04688 40.713 3.84375 39.7208 3.84375H38.0684V8.92969ZM46.2716 6.21094C46.2716 8.05469 45.6934 9.46484 44.5372 10.4414C43.3887 11.418 41.752 11.9062 39.627 11.9062H38.0684V18H34.4356V0.867188H39.9083C41.9864 0.867188 43.5645 1.31641 44.6427 2.21484C45.7286 3.10547 46.2716 4.4375 46.2716 6.21094ZM54.0988 8.47266H55.2706C56.4191 8.47266 57.2667 8.28125 57.8136 7.89844C58.3605 7.51562 58.6339 6.91406 58.6339 6.09375C58.6339 5.28125 58.3527 4.70312 57.7902 4.35938C57.2355 4.01562 56.3722 3.84375 55.2003 3.84375H54.0988V8.47266ZM54.0988 11.4258V18H50.4659V0.867188H55.4581C57.7863 0.867188 59.5089 1.29297 60.6261 2.14453C61.7433 2.98828 62.3019 4.27344 62.3019 6C62.3019 7.00781 62.0245 7.90625 61.4698 8.69531C60.9152 9.47656 60.13 10.0898 59.1144 10.5352C61.6925 14.3867 63.3722 16.875 64.1534 18H60.1222L56.0323 11.4258H54.0988ZM82.8205 9.41016C82.8205 12.2461 82.1173 14.4258 80.7111 15.9492C79.3048 17.4727 77.2892 18.2344 74.6642 18.2344C72.0392 18.2344 70.0236 17.4727 68.6173 15.9492C67.2111 14.4258 66.508 12.2383 66.508 9.38672C66.508 6.53516 67.2111 4.35938 68.6173 2.85938C70.0314 1.35156 72.0548 0.597656 74.6877 0.597656C77.3205 0.597656 79.3322 1.35547 80.7228 2.87109C82.1212 4.38672 82.8205 6.56641 82.8205 9.41016ZM70.3166 9.41016C70.3166 11.3242 70.6798 12.7656 71.4064 13.7344C72.133 14.7031 73.2189 15.1875 74.6642 15.1875C77.5627 15.1875 79.0119 13.2617 79.0119 9.41016C79.0119 5.55078 77.5705 3.62109 74.6877 3.62109C73.2423 3.62109 72.1525 4.10938 71.4181 5.08594C70.6837 6.05469 70.3166 7.49609 70.3166 9.41016Z" fill="#F9D371"/>
</svg>
