<svg width="26" height="20" viewBox="0 0 26 20" fill="none" xmlns="http://www.w3.org/2000/svg">
<path d="M25.0714 0H0.928571C0.414955 0 0 0.40625 0 0.909091V19.0909C0 19.5938 0.414955 20 0.928571 20H25.0714C25.585 20 26 19.5938 26 19.0909V0.909091C26 0.40625 25.585 0 25.0714 0ZM23.9107 3.14773V17.9545H2.08929V3.14773L1.28839 2.53693L2.42879 1.10227L3.67076 2.0483H22.3321L23.5741 1.10227L24.7145 2.53693L23.9107 3.14773ZM22.3321 2.04545L13 9.14773L3.66786 2.04545L2.42589 1.09943L1.28549 2.53409L2.08638 3.14489L11.9989 10.6903C12.284 10.9072 12.6347 11.0249 12.9956 11.0249C13.3566 11.0249 13.7073 10.9072 13.9924 10.6903L23.9107 3.14773L24.7116 2.53693L23.5712 1.10227L22.3321 2.04545Z" fill="#3E3C3A"/>
</svg>
