<svg width="17" height="16" viewBox="0 0 17 16" fill="none" xmlns="http://www.w3.org/2000/svg">
<path d="M7.06641 9.34346C8.10846 10.3594 9.36931 11.1438 10.7604 11.6415L12.6423 10.2022C12.6981 10.1653 12.7643 10.1455 12.832 10.1455C12.8998 10.1455 12.9659 10.1653 13.0217 10.2022L16.5161 12.366C16.6487 12.4426 16.761 12.5479 16.8441 12.6734C16.9271 12.7989 16.9787 12.9413 16.9947 13.0893C17.0106 13.2372 16.9906 13.3868 16.9361 13.526C16.8817 13.6652 16.7942 13.7904 16.6808 13.8916L15.0434 15.446C14.809 15.6687 14.5208 15.8321 14.2046 15.9217C13.8884 16.0113 13.554 16.0242 13.2314 15.9594C10.0127 15.3205 7.04601 13.8242 4.6703 11.6415C2.34732 9.43713 0.739827 6.63225 0.0428232 3.56712C-0.0260318 3.26182 -0.0116608 2.9446 0.0845435 2.64621C0.180748 2.34781 0.355523 2.07836 0.591931 1.86397L2.28917 0.290347C2.3942 0.186616 2.52229 0.107065 2.66384 0.0576512C2.80539 0.00823711 2.95674 -0.00976002 3.10655 0.00500748C3.25636 0.019775 3.40076 0.0669244 3.52892 0.142925C3.65709 0.218926 3.76571 0.321809 3.84664 0.443871L6.17286 3.75903C6.21298 3.81109 6.23464 3.87416 6.23464 3.93894C6.23464 4.00372 6.21298 4.06679 6.17286 4.11885L4.64035 5.88917C5.17228 7.19938 6.00101 8.37934 7.06641 9.34346Z" fill="#FFDF8E"/>
</svg>
