<svg width="26" height="24" viewBox="0 0 26 24" fill="none" xmlns="http://www.w3.org/2000/svg">
<path d="M24.0755 0.00239003C23.7545 0.0257397 23.4394 0.101033 23.1425 0.225332H23.1385C22.8535 0.338302 21.4984 0.908153 19.4383 1.77193L12.056 4.88012C6.7588 7.10953 1.55158 9.30496 1.55158 9.30496L1.61358 9.28097C1.61358 9.28097 1.25457 9.39894 0.87955 9.65587C0.647868 9.80325 0.448505 9.99609 0.293525 10.2227C0.109518 10.4927 -0.0384886 10.9055 0.0165137 11.3324C0.106518 12.0542 0.574537 12.4871 0.910551 12.7261C1.25057 12.968 1.57458 13.081 1.57458 13.081H1.58258L6.46579 14.7255C6.68479 15.4284 7.95385 19.5993 8.25886 20.56C8.43887 21.1339 8.61387 21.4928 8.83288 21.7667C8.93889 21.9067 9.06289 22.0236 9.2119 22.1176C9.28936 22.1627 9.37196 22.1982 9.45791 22.2236L9.40791 22.2116C9.42291 22.2156 9.43491 22.2276 9.44591 22.2316C9.48591 22.2426 9.51291 22.2466 9.56391 22.2546C10.3369 22.4885 10.958 22.0086 10.958 22.0086L10.993 21.9807L13.8761 19.3563L18.7083 23.0624L18.8183 23.1094C19.8253 23.5512 20.8454 23.3053 21.3844 22.8714C21.9274 22.4345 22.1384 21.8757 22.1384 21.8757L22.1734 21.7857L25.9076 2.6617C26.0136 2.18982 26.0406 1.74793 25.9236 1.31905C25.8029 0.884985 25.5244 0.511664 25.1426 0.272319C24.822 0.0774853 24.4502 -0.0165565 24.0755 0.00239003ZM23.9745 2.05185C23.9705 2.11484 23.9825 2.10784 23.9545 2.22881V2.23981L20.2554 21.1649C20.2394 21.1919 20.2124 21.2508 20.1384 21.3098C20.0604 21.3718 19.9984 21.4108 19.6733 21.2818L13.7631 16.752L10.1929 20.0052L10.943 15.2164L20.5994 6.21877C20.9974 5.84886 20.8644 5.77088 20.8644 5.77088C20.8924 5.317 20.2634 5.63792 20.2634 5.63792L8.08685 13.179L8.08285 13.159L2.24661 11.1945V11.1905L2.23161 11.1875C2.24184 11.1841 2.25186 11.1801 2.26161 11.1755L2.29361 11.1595L2.32461 11.1485C2.32461 11.1485 7.53583 8.95305 12.8331 6.72364C15.4852 5.60693 18.1573 4.48222 20.2124 3.61445C22.2674 2.75167 23.7865 2.11884 23.8725 2.08485C23.9545 2.05285 23.9155 2.05285 23.9745 2.05285V2.05185Z" fill="#3E3C3A"/>
</svg>
