<svg width="33" height="21" viewBox="0 0 33 21" fill="none" xmlns="http://www.w3.org/2000/svg">
<path fill-rule="evenodd" clip-rule="evenodd" d="M31.2903 2.22488C31.5047 1.52307 31.2903 1.00635 30.2634 1.00635H26.8727C26.0098 1.00635 25.612 1.45237 25.3963 1.94467C25.3963 1.94467 23.6718 6.05271 21.2292 8.72113C20.4387 9.49492 20.0796 9.74043 19.6482 9.74043C19.4325 9.74043 19.1083 9.49492 19.1083 8.79183V2.22488C19.1083 1.38168 18.8706 1.00635 18.1524 1.00635H12.8203C12.2817 1.00635 11.9575 1.3971 11.9575 1.76857C11.9575 2.56679 13.1794 2.75188 13.3047 4.9987V9.88053C13.3047 10.9512 13.1071 11.1453 12.6756 11.1453C11.526 11.1453 8.72951 7.01802 7.06968 2.29557C6.74804 1.37653 6.42254 1.00635 5.55581 1.00635H2.16253C1.19375 1.00635 1 1.45237 1 1.94467C1 2.82129 2.14961 7.17612 6.35408 12.9359C9.15706 16.8691 13.1032 19.0015 16.698 19.0015C18.8538 19.0015 19.1199 18.5285 19.1199 17.7123V14.7392C19.1199 13.7919 19.324 13.603 20.0073 13.603C20.5111 13.603 21.3726 13.8498 23.3851 15.7457C25.6843 17.9938 26.0628 19.0015 27.357 19.0015H30.7477C31.7165 19.0015 32.2022 18.5285 31.9232 17.5927C31.6158 16.6621 30.5178 15.3112 29.0621 13.7084C28.2716 12.7958 27.0858 11.8124 26.7254 11.3201C26.2229 10.689 26.3663 10.4075 26.7254 9.84583C26.7254 9.84583 30.8588 4.15679 31.289 2.22488H31.2903Z" stroke="#3E3C3A" stroke-width="2"/>
</svg>
